# xmcd CD database file
#
# Track frame offsets:
#	150
#	8155
#	46922
#	72250
#	103450
#	127181
#	159855
#	195563
#	220679
#
# Disc length: 3209 seconds
#
# Revision: 0
# Processed by: cddbd v1.4PL0 Copyright (c) Steve Scherf et al.
# Submitted via: CDex 1.50Beta6
#
DISCID=7a0c8709
DTITLE=Double Image - Duotones
DYEAR=1900
DGENRE=Jazz
TTITLE0=Gobi Gon
TTITLE1=Sunset Glow
TTITLE2=Movie Music
TTITLE3=Summer Night
TTITLE4=Over Hills
TTITLE5=Night Rain
TTITLE6=Untitled
TTITLE7=Skylight
TTITLE8=Caravan
EXTD=
EXTT0=
EXTT1=
EXTT2=
EXTT3=
EXTT4=
EXTT5=
EXTT6=
EXTT7=
EXTT8=
PLAYORDER=
